<?xml version="1.0"?>
<svg xmlns="http://www.w3.org/2000/svg" id="Layer_1" data-name="Layer 1" viewBox="0 0 512 512" width="512" height="512"><title>male nurse</title><path d="M223.2,113.41c-6.85-.94-13.49-2.08-19.6-3.27-12.48-2.41-22.79-4.99-28.28-6.45-2.77-.74-4.32-1.19-4.32-1.19V45.75s31.42-19.67,83.78-19.67c57.04,0,87.22,19.71,87.22,19.71v55.89s-.94.3-2.68.81c-3.78,1.11-11.35,3.22-21.24,5.45-1.45.32-2.96.66-4.52.98-16.38,3.49-37.84,6.92-58.78,6.92A234.547,234.547,0,0,1,223.2,113.41Z" style="fill:#f8ec7d"/><path d="M425,400.29v62.37c0,9.87-11.27,23.26-21.14,23.26H105.4c-9.87,0-24.4-13.39-24.4-23.26V400.29c0-59.16,72.3-72.59,119.45-86.38l.04.14c0,16.63,19.74,50.8,59.21,50.8s59.21-33,59.21-49.63l.07-.24C364.02,328.44,425,340.97,425,400.29Zm-43,35.63v-20H354v-28H333v28H303v20h30v29h21v-29Z" style="fill:#f8ec7d"/><polygon points="382 415.92 382 435.92 354 435.92 354 464.92 333 464.92 333 435.92 303 435.92 303 415.92 333 415.92 333 387.92 354 387.92 354 415.92 382 415.92" style="fill:#6fe3ff"/><path d="M339.35,102.58a76.822,76.822,0,0,1,3.78,23.2c0,5.54-2.86,47.27-6.08,51.5,0,0-4.79-49.94-18.81-68.65l-.16-.69c9.89-2.23,17.46-4.34,21.24-5.45Z" style="fill:#af593c"/><path d="M313.56,108.92l.15.71c-13.97,25.73-32.25,21.86-52.01,20.49-12.59-.87,12.58,22.26,12.58,22.26-41.41,5.92-45.35-24.88-51.08-38.97a234.547,234.547,0,0,0,31.58,2.43C275.72,115.84,297.18,112.41,313.56,108.92Z" style="fill:#af593c"/><path d="M175.32,103.69c5.49,1.46,15.8,4.04,28.28,6.45-22.81,14.06-21.26,67.13-21.26,67.13-3.21-4.23-12.35-41.53-12.35-47.9,0-9.24-.8-17.75,5.29-25.54Z" style="fill:#af593c"/><path d="M306.69,311.1v.01c3.91,1.32,8.03,2.6,12.29,3.87l-.07.24c0,16.63-19.74,49.63-59.21,49.63s-59.21-34.17-59.21-50.8l-.04-.14c3.26-.95,6.4-1.91,9.39-2.88h.52l11.74-25.85.36-1.35c9.24,5.84,21.35,9.7,37.24,9.7,15.91,0,28.03-3.77,37.26-9.48.01,0,.01-.01.02-.01l9.74,26.99Z" style="fill:#d38262"/><path d="M337.05,177.28c10.56-12.03,24.7-1.34,20.79,15.27-4.92,20.8-18.3,37.29-31.23,37.05-.05,0-.85,36.62-29.63,54.44-.01,0-.01.01-.02.01-9.23,5.71-21.35,9.48-37.26,9.48-15.89,0-28-3.86-37.24-9.7-28.32-17.88-29.61-54.23-29.66-54.23-12.94.24-26.32-16.25-31.24-37.05-3.92-16.61,10.23-26.4,20.78-15.28,0,0-1.55-53.07,21.26-67.13,6.11,1.19,12.75,2.33,19.6,3.27,5.73,14.09,9.67,44.89,51.08,38.97,0,0-25.17-23.13-12.58-22.26,19.76,1.37,38.04,5.24,52.01-20.49l-.15-.71c1.56-.32,3.07-.66,4.52-.98l.16.69C332.26,127.34,337.05,177.28,337.05,177.28Z" style="fill:#e48e66"/></svg>
