<svg version="1.1" height="500" width="500"	xmlns="http://www.w3.org/2000/svg">

/* top */

<line x1="200" y1="120" x2="250" y2="150" style="stroke:black;stroke-width:3;" />
<line x1="255" y1="150" x2="305" y2="120" style="stroke:black;stroke-width:3;" />

<line x1="200" y1="115" x2="250" y2="85" style="stroke:black;stroke-width:3;" />
<line x1="255" y1="85" x2="305" y2="115" style="stroke:black;stroke-width:3;" />

/* vertical lines */

<line x1="200" y1="125" x2="200" y2="180" style="stroke:black;stroke-width:3;" />
<line x1="252.5" y1="155" x2="252.5" y2="210" style="stroke:black;stroke-width:3;" />
<line x1="305" y1="125" x2="305" y2="180" style="stroke:black;stroke-width:3;" />

/* bottom */

<line x1="200" y1="185" x2="250" y2="215" style="stroke:black;stroke-width:3;" />
<line x1="255" y1="215" x2="305" y2="185" style="stroke:black;stroke-width:3;" />


/* initial F
line x1="215" y1="145" x2="240" y2="160" style="stroke:black;stroke-width:5;" 
line x1="215" y1="160" x2="240" y2="175" style="stroke:black;stroke-width:5;" 
line x1="215" y1="145" x2="215" y2="180" style="stroke:black;stroke-width:5;" */ 

/* initial cup 

line x1="305" y1="155" x2="325" y2="155" style="stroke:black;stroke-width:3;" 
line x1="335" y1="65" x2="325" y2="155" style="stroke:black;stroke-width:3;"
line x1="275" y1="65" x2="335" y2="65" style="stroke:black;stroke-width:3;" 
line x1="275" y1="65" x2="278" y2="99" style="stroke:black;stroke-width:3;" */

/* cup */

<path stroke-width="3" fill="none" stroke="black" d="M278 99 L275 65 L335 65 L325 155 L305 155" />


/* straw */

<line x1="310" y1="65" x2="305" y2="50" style="stroke:black;stroke-width:3;" />
<line x1="280" y1="50" x2="305" y2="50" style="stroke:black;stroke-width:3;" />

/* F */
<path stroke-width="5" fill="none" stroke="black"
  d="M240 160 L215 145 L215 180" />
<line x1="215" y1="160" x2="240" y2="175" style="stroke:black;stroke-width:5;" />
</svg>
